<svg width="165" height="423" viewBox="0 0 165 423" fill="none" xmlns="http://www.w3.org/2000/svg">
<path id="Logo" d="M163.094 161.658C154.803 130.805 127.752 121.734 104.074 111.568C104.074 111.568 100.525 105.854 95.894 96.0493C90.361 84.3247 85.7971 72.1667 82.2481 59.6973C74.7105 33.0265 75.1628 0 75.1628 0C75.1628 0 40.8022 28.1904 26.1688 67.6343C24.1156 73.1699 23.0739 78.9783 23.8653 84.247C16.7801 80.7888 7.6717 78.82 0 79.8225C0 79.8225 21.7262 91.2916 37.6123 113.604C46.2292 127.705 53.114 141.443 58.6511 155.154C79.2255 206.108 81.134 256.667 83.6591 323.957C83.941 331.451 84.8108 349.017 85.7515 367.259C87.0992 393.384 88.5917 420.897 88.7017 422.191C88.7017 422.191 96.4277 378.136 111.352 331.302C118.069 310.221 126.246 288.576 135.834 270.133C153.99 230.676 170.764 190.187 163.094 161.658ZM41.3585 90.259L41.2258 90.1278C34.2913 81.8682 51.6065 42.3398 63.0048 35.048C62.9686 59.1124 74.8779 92.7599 85.0144 106.967C68.9624 103.364 47.2377 97.7498 41.3585 90.259ZM121.368 263.23C113.227 280.918 102.44 308.68 97.3005 329.277C97.7106 259.516 94.4363 195.973 69.2504 138.33C65.7036 130.202 61.7412 122.262 57.3787 114.54C59.7485 115.266 68.9443 117.038 80.6547 120.234C106.094 127.176 143.405 140.84 148.401 165.096C154.516 191.215 138.412 226.189 121.368 263.23Z" fill="white"/>
</svg>
