<svg width="500" height="500" viewBox="0 0 500 500" fill="none" xmlns="http://www.w3.org/2000/svg">
<g clip-path="url(#clip0_2_2978)">
<rect width="500" height="500" rx="250" fill="#01233B"/>
<g filter="url(#filter0_f_2_2978)">
<path d="M-110 -85.8363C76.3367 -85.8363 398.634 -278.112 510.564 -278.112C622.494 -278.112 717 -297.566 717 -154.338C717 -11.1094 626.263 105 514.333 105C402.403 105 285.285 -104.322 -110 -85.8363Z" fill="#21587D"/>
</g>
<g filter="url(#filter1_f_2_2978)">
<path d="M-653 615.164C-466.663 615.164 -144.366 422.888 -32.4359 422.888C79.4942 422.888 174 403.434 174 546.662C174 689.891 83.2627 806 -28.6674 806C-140.597 806 -257.715 596.678 -653 615.164Z" fill="#21587D"/>
</g>
<path d="M330.094 200.658C321.803 169.805 294.752 160.734 271.074 150.568C271.074 150.568 267.525 144.854 262.894 135.049C257.361 123.325 252.797 111.167 249.248 98.6973C241.711 72.0265 242.163 39 242.163 39C242.163 39 207.802 67.1904 193.169 106.634C191.116 112.17 190.074 117.978 190.865 123.247C183.78 119.789 174.672 117.82 167 118.823C167 118.823 188.726 130.292 204.612 152.604C213.229 166.705 220.114 180.443 225.651 194.154C246.226 245.108 248.134 295.667 250.659 362.957C250.941 370.451 251.811 388.017 252.752 406.259C254.099 432.384 255.592 459.897 255.702 461.191C255.702 461.191 263.428 417.136 278.352 370.302C285.069 349.221 293.246 327.576 302.834 309.133C320.99 269.676 337.764 229.187 330.094 200.658ZM208.358 129.259L208.226 129.128C201.291 120.868 218.606 81.3398 230.005 74.048C229.969 98.1124 241.878 131.76 252.014 145.967C235.962 142.364 214.238 136.75 208.358 129.259ZM288.368 302.23C280.227 319.918 269.44 347.68 264.301 368.277C264.711 298.516 261.436 234.973 236.25 177.33C232.704 169.202 228.741 161.262 224.379 153.54C226.749 154.266 235.944 156.038 247.655 159.234C273.094 166.176 310.405 179.84 315.401 204.096C321.516 230.215 305.412 265.189 288.368 302.23Z" fill="white"/>
</g>
<defs>
<filter id="filter0_f_2_2978" x="-410" y="-579" width="1427" height="984" filterUnits="userSpaceOnUse" color-interpolation-filters="sRGB">
<feFlood flood-opacity="0" result="BackgroundImageFix"/>
<feBlend mode="normal" in="SourceGraphic" in2="BackgroundImageFix" result="shape"/>
<feGaussianBlur stdDeviation="150" result="effect1_foregroundBlur_2_2978"/>
</filter>
<filter id="filter1_f_2_2978" x="-953" y="122" width="1427" height="984" filterUnits="userSpaceOnUse" color-interpolation-filters="sRGB">
<feFlood flood-opacity="0" result="BackgroundImageFix"/>
<feBlend mode="normal" in="SourceGraphic" in2="BackgroundImageFix" result="shape"/>
<feGaussianBlur stdDeviation="150" result="effect1_foregroundBlur_2_2978"/>
</filter>
<clipPath id="clip0_2_2978">
<rect width="500" height="500" rx="250" fill="white"/>
</clipPath>
</defs>
</svg>
